<?xml version="1.0" encoding="UTF-8"?>
<!DOCTYPE svg PUBLIC "-//W3C//DTD SVG 1.1//EN" "http://www.w3.org/Graphics/SVG/1.1/DTD/svg11.dtd">
<!-- Creator: CorelDRAW 2020 (64 Bit) -->
<svg xmlns="http://www.w3.org/2000/svg" xml:space="preserve" width="230px" height="230px" version="1.1" style="shape-rendering:geometricPrecision; text-rendering:geometricPrecision; image-rendering:optimizeQuality; fill-rule:evenodd; clip-rule:evenodd"
viewBox="0 0 230 230"
 xmlns:xlink="http://www.w3.org/1999/xlink"
 xmlns:xodm="http://www.corel.com/coreldraw/odm/2003">
 <defs>
  <style type="text/css">
   <![CDATA[
    .fil1 {fill:none}
    .fil0 {fill:white}
   ]]>
  </style>
   <clipPath id="id0">
    <path d="M115 0l0 0c63.26,0 115,51.74 115,115l0 0c0,63.24 -51.74,115 -115,115l0 0c-63.24,0 -115,-51.76 -115,-115l0 0c0,-63.26 51.76,-115 115,-115z"/>
   </clipPath>
 </defs>
 <g id="Camada_x0020_1">
  <metadata id="CorelCorpID_0Corel-Layer"/>
  <g>
  </g>
  <g style="clip-path:url(#id0)">
   <g>
    <path id="_1" class="fil0" d="M57.31 185c13.93,0.86 29.2,0.05 43.36,0.22 0.06,-5.21 -0.33,-40.15 0.2,-42.09 1.41,-0.34 26.82,-0.34 28.23,0 0.53,1.94 0.17,36.83 0.2,42.09 14.16,-0.17 29.43,0.64 43.39,-0.22 2.64,-0.06 5.05,-2.91 5.49,-5.46 0.42,-2.38 0.11,-42.48 0.14,-50.74 0,-2.63 0.5,-3.44 -1.08,-4.71 -4.33,-3.52 -8.15,-6.76 -12.44,-10.25 -4.16,-3.38 -8.35,-6.77 -12.45,-10.23 -1.1,-0.91 -1.91,-1.63 -3.02,-2.47 -6.76,-5.26 -14.88,-12.46 -21.83,-17.98 -1.67,-1.33 -11.12,-9.45 -12.5,-10.22 -1.47,0.8 -4.6,3.74 -6.15,4.96 -2.19,1.71 -4.02,3.35 -6.21,5.12 -4.16,3.41 -8.31,6.79 -12.44,10.26l-37.27 30.67c-1.69,1.36 -1.28,1.36 -1.25,4.27 0.03,8.56 -0.28,48.52 0.08,51.07 0.39,2.69 2.83,5.66 5.54,5.71l0.01 0z"/>
    <path class="fil0" d="M115 63.26c2.83,1.92 25.22,21.01 28.82,23.92 8.87,7.07 20.31,16.88 28.98,24.19l16.16 13.47c1.36,1.05 3.91,3.91 6.71,1.55 0.85,-0.75 2.27,-2.52 3.13,-3.57 6.59,-8.04 7.9,-6.77 -5.88,-17.66l-14.6 -12.02c-0.28,-14.3 0.36,-30.43 0,-44.26 -0.06,-2.13 -0.72,-3.4 -2.36,-3.99 -2.19,-0.74 -22.89,-0.52 -24.24,0.36 -2.53,1.64 -1.55,7.79 -1.55,11.2 0,4.29 -0.06,8.62 0.02,12.91 -1.22,-0.44 -24.88,-20.48 -26.35,-21.75 -5.1,-4.35 -12.58,-4.32 -17.71,0l-13.13 10.94c-7.6,5.99 -18.54,15.47 -26.16,21.81l-39.32 32.7c-2.8,2.91 0.47,5.88 1.96,7.71 1.14,1.35 4.49,5.73 5.91,6.26 1.74,0.66 3.21,-0.17 4.18,-1.03 7.2,-6.18 16.24,-13.16 22.97,-19.17 5.63,-5.02 13.58,-11.06 19.48,-16.21l32.98 -27.35 0 -0.01z"/>
    <path class="fil0" d="M57.31 185c0.44,1 9.2,0.53 10.61,0.53 5.65,0 31.06,0.36 33.03,-0.2l0.08 -42.04 27.96 0 -0.02 42.04c1.82,0.5 33.75,0.22 41.23,0.2 1,0 1.97,0.11 2.49,-0.53 -13.96,0.86 -29.23,0.05 -43.39,0.22 -0.03,-5.26 0.33,-40.15 -0.2,-42.09 -1.41,-0.34 -26.82,-0.34 -28.23,0 -0.53,1.94 -0.14,36.88 -0.2,42.09 -14.16,-0.17 -29.43,0.64 -43.36,-0.22z"/>
   </g>
  </g>
  <path class="fil1" d="M115 0l0 0c63.26,0 115,51.74 115,115l0 0c0,63.24 -51.74,115 -115,115l0 0c-63.24,0 -115,-51.76 -115,-115l0 0c0,-63.26 51.76,-115 115,-115z"/>
 </g>
</svg>
