<?xml version="1.0" encoding="UTF-8"?>
<!DOCTYPE svg PUBLIC "-//W3C//DTD SVG 1.1//EN" "http://www.w3.org/Graphics/SVG/1.1/DTD/svg11.dtd">
<!-- Creator: CorelDRAW 2020 (64 Bit) -->
<svg xmlns="http://www.w3.org/2000/svg" xml:space="preserve" width="230px" height="230px" version="1.1" style="shape-rendering:geometricPrecision; text-rendering:geometricPrecision; image-rendering:optimizeQuality; fill-rule:evenodd; clip-rule:evenodd"
viewBox="0 0 230 230"
 xmlns:xlink="http://www.w3.org/1999/xlink"
 xmlns:xodm="http://www.corel.com/coreldraw/odm/2003">
 <defs>
  <style type="text/css">
   <![CDATA[
    .fil1 {fill:none}
    .fil0 {fill:white}
   ]]>
  </style>
   <clipPath id="id0">
    <path d="M115 0l0 0c-63.24,0 -115,51.74 -115,115l0 0c0,63.24 51.76,115 115,115l0 0c63.26,0 115,-51.76 115,-115l0 0c0,-63.26 -51.74,-115 -115,-115z"/>
   </clipPath>
 </defs>
 <g id="Camada_x0020_1">
  <metadata id="CorelCorpID_0Corel-Layer"/>
  <g>
  </g>
  <g style="clip-path:url(#id0)">
   <g>
    <path id="_1" class="fil0" d="M125.12 63.43c0.47,0.72 0.8,0.64 2.05,0.97 10.19,2.72 19.37,10.75 23.77,20.53 7.18,15.8 4.02,35.95 4.55,54.24 0.05,1.74 0.55,1.69 2.38,3.49 2.6,2.63 7.59,6.81 8.2,9.72 0.75,3.75 -1.58,6.77 -4.04,7.73 -2.58,1.03 -40.71,0.48 -46.84,0.48 -6.29,0 -44.08,0.61 -46.88,-0.39 -5.21,-1.83 -5.6,-8.32 -2.75,-11.06 11.25,-10.75 8.9,-6.15 8.9,-20.81 0,-17.71 -2.05,-36.19 8.81,-50.38 1.75,-2.24 3.63,-4.51 5.76,-6.12 5.66,-4.27 8.37,-5.96 15.77,-7.98 0.39,-4.46 -0.61,-6.71 1.8,-10.31 1.5,-2.19 4.1,-4.27 8.07,-4.38 3.88,-0.14 6.81,1.91 8.42,4.02 2.24,2.88 2.02,6.04 2.02,10.25l0.01 0z"/>
    <path class="fil0" d="M116.61 180.84l-3.49 0c-1.78,-0.83 -5.55,-1.27 -8.1,-4.32 -1.83,-2.22 -3.35,-5.21 -3.54,-9.2l27.02 0c-0.23,5.37 -2.86,9.7 -7.21,11.97 -1.69,0.89 -3.21,0.91 -4.68,1.55z"/>
   </g>
  </g>
  <path class="fil1" d="M115 0l0 0c-63.24,0 -115,51.74 -115,115l0 0c0,63.24 51.76,115 115,115l0 0c63.26,0 115,-51.76 115,-115l0 0c0,-63.26 -51.74,-115 -115,-115z"/>
 </g>
</svg>
