<?xml version="1.0" encoding="UTF-8"?>
<!DOCTYPE svg PUBLIC "-//W3C//DTD SVG 1.1//EN" "http://www.w3.org/Graphics/SVG/1.1/DTD/svg11.dtd">
<!-- Creator: CorelDRAW 2020 (64 Bit) -->
<svg xmlns="http://www.w3.org/2000/svg" xml:space="preserve" width="230px" height="230px" version="1.1" style="shape-rendering:geometricPrecision; text-rendering:geometricPrecision; image-rendering:optimizeQuality; fill-rule:evenodd; clip-rule:evenodd"
viewBox="0 0 230 230"
 xmlns:xlink="http://www.w3.org/1999/xlink"
 xmlns:xodm="http://www.corel.com/coreldraw/odm/2003">
 <defs>
  <style type="text/css">
   <![CDATA[
    .fil1 {fill:none}
    .fil0 {fill:white}
   ]]>
  </style>
   <clipPath id="id0">
    <path d="M115 0l0 0c-63.24,0 -115,51.74 -115,115l0 0c0,63.24 51.76,115 115,115l0 0c63.26,0 115,-51.76 115,-115l0 0c0,-63.26 -51.74,-115 -115,-115z"/>
   </clipPath>
 </defs>
 <g id="Camada_x0020_1">
  <metadata id="CorelCorpID_0Corel-Layer"/>
  <g>
  </g>
  <g style="clip-path:url(#id0)">
   <g>
    <path id="_1" class="fil0" d="M59.22 67.78l17.32 84.66c-2.16,1.02 -4.1,3.35 -5.38,5.57 -1.41,2.49 -1.91,5.98 -1.25,9.06 2.72,12.72 19.57,15.07 25.64,3.8 1.41,-2.61 1.99,-5.71 1.41,-8.96 -0.86,-4.79 -3.27,-6.45 -3.77,-7.42l51.46 0c-2.83,1.74 -5.87,9.72 -2.55,16.18 2.16,4.24 7.73,8.54 14.85,7.18 10.23,-2 15.52,-14.83 6.74,-23.61 -1.08,-1.05 -2.05,-1.39 -3.24,-2.41 0.24,-2.66 5.09,-13.11 -5.85,-13.11l-64.68 0 -1.69 -7.93c21.31,0 42.54,0 63.76,0 15.38,0 12.69,0.86 16.63,-15.35 3.13,-12.8 5.76,-26.18 8.89,-38.93 1.28,-5.32 -0.96,-8.65 -6.2,-8.73 -31.54,-0.42 -64.32,0.39 -95.99,0 -0.31,-2.88 -1.36,-6.71 -1.97,-9.59 -0.75,-3.63 -1.8,-5.85 -5.74,-6.09 -7.12,-0.48 -16.04,-0.03 -23.36,-0.03 -8.26,0.03 -8.15,3.46 -8.06,9.31 0.03,2.08 0.39,3.3 1.55,4.49 2.38,2.41 5.74,1.91 9.7,1.91 3.91,0 7.84,0 11.78,0l0 0z"/>
   </g>
  </g>
  <path class="fil1" d="M115 0l0 0c-63.24,0 -115,51.74 -115,115l0 0c0,63.24 51.76,115 115,115l0 0c63.26,0 115,-51.76 115,-115l0 0c0,-63.26 -51.74,-115 -115,-115z"/>
 </g>
</svg>
